<svg width="24" height="21" viewBox="0 0 24 21" fill="none" xmlns="http://www.w3.org/2000/svg">
<path d="M8.93918 0.375C7.77863 0.375 6.66562 0.836024 5.84499 1.65665C5.02436 2.47728 4.56334 3.59029 4.56334 4.75084C4.56334 5.91138 5.02436 7.0244 5.84499 7.84502C6.66562 8.66565 7.77863 9.12668 8.93918 9.12668C10.0997 9.12668 11.2127 8.66565 12.0334 7.84502C12.854 7.0244 13.315 5.91138 13.315 4.75084C13.315 3.59029 12.854 2.47728 12.0334 1.65665C11.2127 0.836024 10.0997 0.375 8.93918 0.375ZM8.93918 2.56292C9.51945 2.56292 10.076 2.79343 10.4863 3.20375C10.8966 3.61406 11.1271 4.17057 11.1271 4.75084C11.1271 5.33111 10.8966 5.88762 10.4863 6.29793C10.076 6.70825 9.51945 6.93876 8.93918 6.93876C8.35891 6.93876 7.8024 6.70825 7.39209 6.29793C6.98177 5.88762 6.75126 5.33111 6.75126 4.75084C6.75126 4.17057 6.98177 3.61406 7.39209 3.20375C7.8024 2.79343 8.35891 2.56292 8.93918 2.56292ZM16.5969 9.12668C16.4219 9.12668 16.3343 9.21419 16.3343 9.38923L16.0499 10.7676C15.8092 10.9645 15.4592 11.1396 15.1966 11.3146L13.7964 10.7676C13.7088 10.7676 13.5338 10.7676 13.4463 10.877L12.3961 12.8024C12.3086 12.8899 12.3086 13.0649 12.4836 13.1524L13.6213 14.0495V15.1435L12.4836 16.0405C12.3961 16.128 12.3086 16.3031 12.3961 16.3906L13.4463 18.3159C13.5338 18.4253 13.7088 18.4253 13.7964 18.4253L15.1966 17.8784C15.4592 18.0534 15.8092 18.2284 16.0499 18.4253L16.3343 19.8037C16.3343 19.9788 16.4219 20.0663 16.5969 20.0663H18.7848C18.8723 20.0663 19.0474 19.9788 19.0474 19.8037L19.2224 18.4253C19.5725 18.2284 19.9225 18.0534 20.1851 17.8784L21.5197 18.4253C21.6729 18.4253 21.8479 18.4253 21.8479 18.3159L22.9856 16.3906C23.0731 16.3031 22.9856 16.128 22.8981 16.0405L21.7604 15.1435V14.0495L22.8981 13.1524C22.9856 13.0649 23.0731 12.8899 22.9856 12.8024L21.8479 10.877C21.8479 10.7676 21.6729 10.7676 21.5197 10.7676L20.1851 11.3146C19.9225 11.1396 19.5725 10.9645 19.2224 10.7676L19.0474 9.38923C19.0474 9.21419 18.8723 9.12668 18.7848 9.12668H16.5969ZM8.93918 10.2206C6.01831 10.2206 0.1875 11.6756 0.1875 14.5965V17.8784H10.7661C10.4598 17.2329 10.241 16.5328 10.1316 15.7998H2.26602V14.5965C2.26602 13.8963 5.69012 12.2992 8.93918 12.2992C9.40958 12.2992 9.89092 12.3429 10.3613 12.4086C10.5801 11.7084 10.8755 11.052 11.2584 10.4504C10.4051 10.3082 9.59555 10.2206 8.93918 10.2206ZM17.7346 12.9555C18.6098 12.9555 19.3318 13.6776 19.3318 14.6402C19.3318 15.5154 18.6098 16.2374 17.7346 16.2374C16.7719 16.2374 16.0499 15.5154 16.0499 14.6402C16.0499 13.6776 16.7719 12.9555 17.7346 12.9555Z" fill="#79797B"/>
</svg>
