<svg width="23" height="19" viewBox="0 0 23 19" fill="none" xmlns="http://www.w3.org/2000/svg">
<path d="M9.57215 0V2.2121L11.4866 3.51391V1.95761H21.0587V16.6397H16.2727V18.5973H22.9732V0H9.57215ZM7.17911 2.93642L0 7.83045V18.5973H14.3582V7.83045L7.17911 2.93642ZM13.401 3.91522V4.82551L14.9421 5.87284H15.3154V3.91522H13.401ZM17.2299 3.91522V5.87284H19.1443V3.91522H17.2299ZM7.17911 5.38343L12.4438 8.80925V16.6397H9.57215V10.7669H4.78607V16.6397H1.91443V8.80925L7.17911 5.38343ZM17.2299 7.83045V9.78806H19.1443V7.83045H17.2299ZM17.2299 11.7457V13.7033H19.1443V11.7457H17.2299Z" fill="#79797B"/>
</svg>
