<svg width="20" height="24" viewBox="0 0 20 24" fill="none" xmlns="http://www.w3.org/2000/svg">
<path d="M17.7778 16.6667V10.8889C17.2222 11 16.6667 11.1111 16.1111 11.1111H15.5556V17.7778H4.44444V10C4.44444 6.88889 6.88889 4.44444 10 4.44444C10.1111 3 10.7778 1.77778 11.6667 0.777778C11.3333 0.333333 10.6667 0 10 0C8.77778 0 7.77778 1 7.77778 2.22222V2.55556C4.44444 3.55556 2.22222 6.55556 2.22222 10V16.6667L0 18.8889V20H20V18.8889L17.7778 16.6667ZM7.77778 21.1111C7.77778 22.3333 8.77778 23.3333 10 23.3333C11.2222 23.3333 12.2222 22.3333 12.2222 21.1111H7.77778ZM20 5C20 7.11111 18.2222 8.88889 16.1111 8.88889C14 8.88889 12.2222 7.11111 12.2222 5C12.2222 2.88889 14 1.11111 16.1111 1.11111C18.2222 1.11111 20 2.88889 20 5Z" fill="#79797B"/>
</svg>
