<svg width="15" height="12" viewBox="0 0 15 12" fill="none" xmlns="http://www.w3.org/2000/svg">
<path d="M0 9.20354V11.3274H5.66372V9.98938H1.34513V9.20354C1.34513 8.75044 3.56106 7.71681 5.66372 7.71681C6.34336 7.72389 7.01593 7.81593 7.66726 7.98584L8.74336 6.90973C7.75221 6.57699 6.72566 6.39292 5.66372 6.37168C3.77345 6.37168 0 7.31327 0 9.20354ZM5.66372 0C4.09911 0 2.83186 1.26726 2.83186 2.83186C2.83186 4.39646 4.09911 5.66372 5.66372 5.66372C7.22832 5.66372 8.49557 4.39646 8.49557 2.83186C8.49557 1.26726 7.22832 0 5.66372 0ZM5.66372 4.24779C4.88496 4.24779 4.24779 3.6177 4.24779 2.83186C4.24779 2.04602 4.88496 1.41593 5.66372 1.41593C6.44248 1.41593 7.07965 2.0531 7.07965 2.83186C7.07965 3.61062 6.44956 4.24779 5.66372 4.24779ZM13.9469 6.61947L13.2389 7.32743L11.7876 5.9115L12.4956 5.20354C12.6442 5.05487 12.892 5.05487 13.0407 5.20354L13.9469 6.10973C14.0956 6.25841 14.0956 6.50619 13.9469 6.65487V6.61947ZM7.07965 10.577L11.3699 6.28673L12.8212 7.70265L8.57345 12H7.07965V10.577Z" fill="#0231A8"/>
</svg>
