<svg width="14" height="12" viewBox="0 0 14 12" fill="none" xmlns="http://www.w3.org/2000/svg">
<path d="M5.33333 0C4.62609 0 3.94781 0.280951 3.44772 0.781048C2.94762 1.28115 2.66667 1.95942 2.66667 2.66667C2.66667 3.37391 2.94762 4.05219 3.44772 4.55229C3.94781 5.05238 4.62609 5.33333 5.33333 5.33333C6.04058 5.33333 6.71885 5.05238 7.21895 4.55229C7.71905 4.05219 8 3.37391 8 2.66667C8 1.95942 7.71905 1.28115 7.21895 0.781048C6.71885 0.280951 6.04058 0 5.33333 0ZM5.33333 1.33333C5.68696 1.33333 6.02609 1.47381 6.27614 1.72386C6.52619 1.97391 6.66667 2.31304 6.66667 2.66667C6.66667 3.02029 6.52619 3.35943 6.27614 3.60948C6.02609 3.85952 5.68696 4 5.33333 4C4.97971 4 4.64057 3.85952 4.39052 3.60948C4.14048 3.35943 4 3.02029 4 2.66667C4 2.31304 4.14048 1.97391 4.39052 1.72386C4.64057 1.47381 4.97971 1.33333 5.33333 1.33333ZM10 5.33333C9.89333 5.33333 9.84 5.38667 9.84 5.49333L9.66667 6.33333C9.52 6.45333 9.30667 6.56 9.14667 6.66667L8.29333 6.33333C8.24 6.33333 8.13333 6.33333 8.08 6.4L7.44 7.57333C7.38667 7.62667 7.38667 7.73333 7.49333 7.78667L8.18667 8.33333V9L7.49333 9.54667C7.44 9.6 7.38667 9.70667 7.44 9.76L8.08 10.9333C8.13333 11 8.24 11 8.29333 11L9.14667 10.6667C9.30667 10.7733 9.52 10.88 9.66667 11L9.84 11.84C9.84 11.9467 9.89333 12 10 12H11.3333C11.3867 12 11.4933 11.9467 11.4933 11.84L11.6 11C11.8133 10.88 12.0267 10.7733 12.1867 10.6667L13 11C13.0933 11 13.2 11 13.2 10.9333L13.8933 9.76C13.9467 9.70667 13.8933 9.6 13.84 9.54667L13.1467 9V8.33333L13.84 7.78667C13.8933 7.73333 13.9467 7.62667 13.8933 7.57333L13.2 6.4C13.2 6.33333 13.0933 6.33333 13 6.33333L12.1867 6.66667C12.0267 6.56 11.8133 6.45333 11.6 6.33333L11.4933 5.49333C11.4933 5.38667 11.3867 5.33333 11.3333 5.33333H10ZM5.33333 6C3.55333 6 0 6.88667 0 8.66667V10.6667H6.44667C6.26 10.2733 6.12667 9.84667 6.06 9.4H1.26667V8.66667C1.26667 8.24 3.35333 7.26667 5.33333 7.26667C5.62 7.26667 5.91333 7.29333 6.2 7.33333C6.33333 6.90667 6.51333 6.50667 6.74667 6.14C6.22667 6.05333 5.73333 6 5.33333 6ZM10.6933 7.66667C11.2267 7.66667 11.6667 8.10667 11.6667 8.69333C11.6667 9.22667 11.2267 9.66667 10.6933 9.66667C10.1067 9.66667 9.66667 9.22667 9.66667 8.69333C9.66667 8.10667 10.1067 7.66667 10.6933 7.66667Z" fill="#0231A8"/>
</svg>
