<svg width="11" height="12" viewBox="0 0 11 12" fill="none" xmlns="http://www.w3.org/2000/svg">
<path d="M9.33333 5.66667V2.66667L7.92667 3.37333C7.97333 3.57333 8 3.78 8 4C8 5.47333 6.80667 6.66667 5.33333 6.66667C3.86 6.66667 2.66667 5.47333 2.66667 4C2.66667 3.78 2.69333 3.57333 2.74 3.37333L0.666667 2.33333L5.33333 0L10 2.33333V5.66667H9.33333ZM5.33333 4.66667L4 4C4 4.73333 4.6 5.33333 5.33333 5.33333C6.06667 5.33333 6.66667 4.73333 6.66667 4L5.33333 4.66667ZM7.16667 2.28L5.44 1.4L3.64667 2.31333L5.38 3.19333L7.16667 2.28ZM5.33333 7.33333C7.11333 7.33333 10.6667 8.22 10.6667 10V12H0V10C0 8.22 3.55333 7.33333 5.33333 7.33333ZM5.33333 8.6C3.33333 8.6 1.26667 9.57333 1.26667 10V10.7333H9.4V10C9.4 9.57333 7.31333 8.6 5.33333 8.6Z" fill="#0231A8"/>
</svg>
