<svg width="13" height="12" viewBox="0 0 13 12" fill="none" xmlns="http://www.w3.org/2000/svg">
<path d="M5.72727 10.2857V11.4286H1.14545C0.515455 11.4286 0 10.9143 0 10.2857V1.14286C0 0.514286 0.515455 0 1.14545 0H11.4545C12.0845 0 12.6 0.514286 12.6 1.14286V5.77143L12.4855 5.65714C12.1991 5.37143 11.8555 5.2 11.4545 5.2V2.28571H1.14545V10.2857H5.72727ZM11.6836 6.45714L12.4282 7.2C12.5427 7.31429 12.5427 7.54286 12.4282 7.65714L11.8555 8.22857L10.6527 7.02857L11.2255 6.45714C11.2827 6.4 11.34 6.34286 11.4545 6.34286C11.5691 6.34286 11.6264 6.4 11.6836 6.45714ZM11.5118 8.51429L8.07545 12H6.87273V10.8L10.3664 7.31429L11.5118 8.51429Z" fill="#0231A8"/>
</svg>
