<svg width="15" height="12" viewBox="0 0 15 12" fill="none" xmlns="http://www.w3.org/2000/svg">
<path d="M6.17647 0V1.42737L7.41176 2.26737V1.26316H13.5882V10.7368H10.5V12H14.8235V0H6.17647ZM4.63235 1.89474L0 5.05263V12H9.26471V5.05263L4.63235 1.89474ZM8.64706 2.52632V3.11368L9.64147 3.78947H9.88235V2.52632H8.64706ZM11.1176 2.52632V3.78947H12.3529V2.52632H11.1176ZM4.63235 3.47368L8.02941 5.68421V10.7368H6.17647V6.94737H3.08824V10.7368H1.23529V5.68421L4.63235 3.47368ZM11.1176 5.05263V6.31579H12.3529V5.05263H11.1176ZM11.1176 7.57895V8.8421H12.3529V7.57895H11.1176Z" fill="#0231A8"/>
</svg>
