<svg width="12" height="12" viewBox="0 0 12 12" fill="none" xmlns="http://www.w3.org/2000/svg">
<path d="M10.8293 9C11.1398 9 11.4375 8.87357 11.6571 8.64853C11.8767 8.42348 12 8.11826 12 7.8V1.2C12 0.88174 11.8767 0.576515 11.6571 0.351472C11.4375 0.126428 11.1398 0 10.8293 0H4.65951C4.86439 0.366 4.97561 0.78 4.97561 1.2H10.8293V7.8H5.56098V9H10.8293ZM7.90244 3V4.2H4.39024V12H3.21951V8.4H2.04878V12H0.878049V7.2H0V4.2C0 3.88174 0.123345 3.57652 0.342899 3.35147C0.562454 3.12643 0.860234 3 1.17073 3H7.90244ZM3.80488 1.2C3.80488 1.51826 3.68153 1.82348 3.46198 2.04853C3.24242 2.27357 2.94464 2.4 2.63415 2.4C2.32365 2.4 2.02587 2.27357 1.80631 2.04853C1.58676 1.82348 1.46341 1.51826 1.46341 1.2C1.46341 0.88174 1.58676 0.576515 1.80631 0.351472C2.02587 0.126428 2.32365 0 2.63415 0C2.94464 0 3.24242 0.126428 3.46198 0.351472C3.68153 0.576515 3.80488 0.88174 3.80488 1.2Z" fill="#0231A8"/>
</svg>
