<svg width="23" height="23" viewBox="0 0 23 23" fill="none" xmlns="http://www.w3.org/2000/svg">
<path d="M20.125 19.168V5.7513C20.125 4.69426 19.2654 3.83464 18.2083 3.83464H16.2917V1.91797H14.375V3.83464H8.625V1.91797H6.70833V3.83464H4.79167C3.73462 3.83464 2.875 4.69426 2.875 5.7513V19.168C2.875 20.225 3.73462 21.0846 4.79167 21.0846H18.2083C19.2654 21.0846 20.125 20.225 20.125 19.168ZM8.625 17.2513H6.70833V15.3346H8.625V17.2513ZM8.625 13.418H6.70833V11.5013H8.625V13.418ZM12.4583 17.2513H10.5417V15.3346H12.4583V17.2513ZM12.4583 13.418H10.5417V11.5013H12.4583V13.418ZM16.2917 17.2513H14.375V15.3346H16.2917V17.2513ZM16.2917 13.418H14.375V11.5013H16.2917V13.418ZM18.2083 8.6263H4.79167V6.70964H18.2083V8.6263Z" fill="#0231A8"/>
</svg>
