<svg width="26" height="22" viewBox="0 0 26 22" fill="none" xmlns="http://www.w3.org/2000/svg">
<path d="M0.5 16.25V20H10.5V17.6375H2.875V16.25C2.875 15.45 6.7875 13.625 10.5 13.625C11.7 13.6375 12.8875 13.8 14.0375 14.1L15.9375 12.2C14.1875 11.6125 12.375 11.2875 10.5 11.25C7.1625 11.25 0.5 12.9125 0.5 16.25ZM10.5 0C7.7375 0 5.5 2.2375 5.5 5C5.5 7.7625 7.7375 10 10.5 10C13.2625 10 15.5 7.7625 15.5 5C15.5 2.2375 13.2625 0 10.5 0ZM10.5 7.5C9.125 7.5 8 6.3875 8 5C8 3.6125 9.125 2.5 10.5 2.5C11.875 2.5 13 3.625 13 5C13 6.375 11.8875 7.5 10.5 7.5ZM25.125 11.6875L23.875 12.9375L21.3125 10.4375L22.5625 9.1875C22.825 8.925 23.2625 8.925 23.525 9.1875L25.125 10.7875C25.3875 11.05 25.3875 11.4875 25.125 11.75V11.6875ZM13 18.675L20.575 11.1L23.1375 13.6L15.6375 21.1875H13V18.675Z" fill="#79797B"/>
</svg>
