<svg width="21" height="20" viewBox="0 0 21 20" fill="none" xmlns="http://www.w3.org/2000/svg">
<path d="M9.54545 17.1429V19.0476H1.90909C0.859091 19.0476 0 18.1905 0 17.1429V1.90476C0 0.857143 0.859091 0 1.90909 0H19.0909C20.1409 0 21 0.857143 21 1.90476V9.61905L20.8091 9.42857C20.3318 8.95238 19.7591 8.66667 19.0909 8.66667V3.80952H1.90909V17.1429H9.54545ZM19.4727 10.7619L20.7136 12C20.9045 12.1905 20.9045 12.5714 20.7136 12.7619L19.7591 13.7143L17.7545 11.7143L18.7091 10.7619C18.8045 10.6667 18.9 10.5714 19.0909 10.5714C19.2818 10.5714 19.3773 10.6667 19.4727 10.7619ZM19.1864 14.1905L13.4591 20H11.4545V18L17.2773 12.1905L19.1864 14.1905Z" fill="#79797B"/>
</svg>
