<svg width="19" height="20" viewBox="0 0 19 20" fill="none" xmlns="http://www.w3.org/2000/svg">
<path d="M17.4167 0.125H1.58333C1.16341 0.125 0.76068 0.291815 0.463748 0.588748C0.166815 0.88568 0 1.28841 0 1.70833V17.5417C0 17.9616 0.166815 18.3643 0.463748 18.6613C0.76068 18.9582 1.16341 19.125 1.58333 19.125H12.3391C12.5471 19.1253 12.753 19.0845 12.9451 19.0048C13.1372 18.9252 13.3116 18.8083 13.4583 18.6609L18.5359 13.5833C18.6833 13.4366 18.8002 13.2622 18.8798 13.0701C18.9595 12.878 19.0003 12.6721 19 12.4641V1.70833C19 1.28841 18.8332 0.88568 18.5363 0.588748C18.2393 0.291815 17.8366 0.125 17.4167 0.125ZM6.33333 5.66667H12.6667C12.8766 5.66667 13.078 5.75007 13.2265 5.89854C13.3749 6.04701 13.4583 6.24837 13.4583 6.45833C13.4583 6.6683 13.3749 6.86966 13.2265 7.01813C13.078 7.16659 12.8766 7.25 12.6667 7.25H6.33333C6.12337 7.25 5.92201 7.16659 5.77354 7.01813C5.62507 6.86966 5.54167 6.6683 5.54167 6.45833C5.54167 6.24837 5.62507 6.04701 5.77354 5.89854C5.92201 5.75007 6.12337 5.66667 6.33333 5.66667ZM9.5 13.5833H6.33333C6.12337 13.5833 5.92201 13.4999 5.77354 13.3515C5.62507 13.203 5.54167 13.0016 5.54167 12.7917C5.54167 12.5817 5.62507 12.3803 5.77354 12.2319C5.92201 12.0834 6.12337 12 6.33333 12H9.5C9.70996 12 9.91133 12.0834 10.0598 12.2319C10.2083 12.3803 10.2917 12.5817 10.2917 12.7917C10.2917 13.0016 10.2083 13.203 10.0598 13.3515C9.91133 13.4999 9.70996 13.5833 9.5 13.5833ZM6.33333 10.4167C6.12337 10.4167 5.92201 10.3333 5.77354 10.1848C5.62507 10.0363 5.54167 9.83496 5.54167 9.625C5.54167 9.41504 5.62507 9.21367 5.77354 9.06521C5.92201 8.91674 6.12337 8.83333 6.33333 8.83333H12.6667C12.8766 8.83333 13.078 8.91674 13.2265 9.06521C13.3749 9.21367 13.4583 9.41504 13.4583 9.625C13.4583 9.83496 13.3749 10.0363 13.2265 10.1848C13.078 10.3333 12.8766 10.4167 12.6667 10.4167H6.33333ZM12.6667 17.2141V12.7917H17.0901L12.6667 17.2141Z" fill="#0231A8"/>
</svg>
