<svg width="23" height="23" viewBox="0 0 23 23" fill="none" xmlns="http://www.w3.org/2000/svg">
<path d="M11.5 6.9C12.7539 6.9 13.9565 7.38464 14.8432 8.24731C15.7298 9.10998 16.228 10.28 16.228 11.5C16.228 12.72 15.7298 13.89 14.8432 14.7527C13.9565 15.6154 12.7539 16.1 11.5 16.1C10.2461 16.1 9.04349 15.6154 8.15682 14.7527C7.27015 13.89 6.77203 12.72 6.77203 11.5C6.77203 10.28 7.27015 9.10998 8.15682 8.24731C9.04349 7.38464 10.2461 6.9 11.5 6.9ZM11.5 9.2C10.873 9.2 10.2717 9.44232 9.82841 9.87365C9.38508 10.305 9.13601 10.89 9.13601 11.5C9.13601 12.11 9.38508 12.695 9.82841 13.1263C10.2717 13.5577 10.873 13.8 11.5 13.8C12.127 13.8 12.7283 13.5577 13.1716 13.1263C13.6149 12.695 13.864 12.11 13.864 11.5C13.864 10.89 13.6149 10.305 13.1716 9.87365C12.7283 9.44232 12.127 9.2 11.5 9.2ZM9.13601 23C8.84052 23 8.5923 22.793 8.54502 22.517L8.10768 19.4695C7.36302 19.182 6.72475 18.791 6.11011 18.331L3.16695 19.4925C2.90691 19.5845 2.58777 19.4925 2.44594 19.2395L0.0819494 15.2605C-0.0717096 15.0075 -0.000789928 14.697 0.223789 14.5245L2.71779 12.6155L2.63505 11.5L2.71779 10.35L0.223789 8.4755C-0.000789928 8.303 -0.0717096 7.9925 0.0819494 7.7395L2.44594 3.7605C2.58777 3.5075 2.90691 3.404 3.16695 3.5075L6.11011 4.6575C6.72475 4.209 7.36302 3.818 8.10768 3.5305L8.54502 0.483C8.5923 0.207 8.84052 0 9.13601 0H13.864C14.1595 0 14.4077 0.207 14.455 0.483L14.8923 3.5305C15.637 3.818 16.2752 4.209 16.8899 4.6575L19.833 3.5075C20.0931 3.404 20.4122 3.5075 20.5541 3.7605L22.9181 7.7395C23.0717 7.9925 23.0008 8.303 22.7762 8.4755L20.2822 10.35L20.3649 11.5L20.2822 12.65L22.7762 14.5245C23.0008 14.697 23.0717 15.0075 22.9181 15.2605L20.5541 19.2395C20.4122 19.4925 20.0931 19.596 19.833 19.4925L16.8899 18.3425C16.2752 18.791 15.637 19.182 14.8923 19.4695L14.455 22.517C14.4077 22.793 14.1595 23 13.864 23H9.13601ZM10.6135 2.3L10.1762 5.3015C8.75778 5.589 7.50486 6.325 6.59473 7.3485L3.74613 6.1525L2.85963 7.6475L5.35364 9.43C4.88084 10.7755 4.88084 12.236 5.35364 13.57L2.84781 15.364L3.73431 16.859L6.60655 15.663C7.51668 16.675 8.75778 17.411 10.1643 17.687L10.6017 20.7H12.3983L12.8357 17.6985C14.2422 17.411 15.4833 16.675 16.3934 15.663L19.2657 16.859L20.1522 15.364L17.6464 13.5815C18.1192 12.236 18.1192 10.7755 17.6464 9.43L20.1404 7.6475L19.2539 6.1525L16.4053 7.3485C15.4951 6.325 14.2422 5.589 12.8238 5.313L12.3865 2.3H10.6135Z" fill="#79797B"/>
</svg>
