<svg width="20" height="23" viewBox="0 0 20 23" fill="none" xmlns="http://www.w3.org/2000/svg">
<path d="M17.5 10.625V5L14.8625 6.325C14.95 6.7 15 7.0875 15 7.5C15 10.2625 12.7625 12.5 10 12.5C7.2375 12.5 5 10.2625 5 7.5C5 7.0875 5.05 6.7 5.1375 6.325L1.25 4.375L10 0L18.75 4.375V10.625H17.5ZM10 8.75L7.5 7.5C7.5 8.875 8.625 10 10 10C11.375 10 12.5 8.875 12.5 7.5L10 8.75ZM13.4375 4.275L10.2 2.625L6.8375 4.3375L10.0875 5.9875L13.4375 4.275ZM10 13.75C13.3375 13.75 20 15.4125 20 18.75V22.5H0V18.75C0 15.4125 6.6625 13.75 10 13.75ZM10 16.125C6.25 16.125 2.375 17.95 2.375 18.75V20.125H17.625V18.75C17.625 17.95 13.7125 16.125 10 16.125Z" fill="#79797B"/>
</svg>
