<svg width="21" height="21" viewBox="0 0 21 21" fill="none" xmlns="http://www.w3.org/2000/svg">
<path d="M18.9512 15.75C19.4946 15.75 20.0157 15.5287 20.3999 15.1349C20.7841 14.7411 21 14.207 21 13.65V2.1C21 1.54305 20.7841 1.0089 20.3999 0.615076C20.0157 0.221249 19.4946 0 18.9512 0H8.15415C8.51268 0.6405 8.70732 1.365 8.70732 2.1H18.9512V13.65H9.73171V15.75H18.9512ZM13.8293 5.25V7.35H7.68293V21H5.63415V14.7H3.58537V21H1.53659V12.6H0V7.35C0 6.79305 0.215853 6.2589 0.600074 5.86508C0.984295 5.47125 1.50541 5.25 2.04878 5.25H13.8293ZM6.65854 2.1C6.65854 2.65695 6.44268 3.1911 6.05846 3.58492C5.67424 3.97875 5.15313 4.2 4.60976 4.2C4.06639 4.2 3.54527 3.97875 3.16105 3.58492C2.77683 3.1911 2.56098 2.65695 2.56098 2.1C2.56098 1.54305 2.77683 1.0089 3.16105 0.615076C3.54527 0.221249 4.06639 0 4.60976 0C5.15313 0 5.67424 0.221249 6.05846 0.615076C6.44268 1.0089 6.65854 1.54305 6.65854 2.1Z" fill="#79797B"/>
</svg>
