<svg width="16" height="15" viewBox="0 0 16 15" fill="none" xmlns="http://www.w3.org/2000/svg">
<path d="M7.76037 1.25C11.3205 1.25 14.2063 4.04813 14.2063 7.5C14.2063 10.9519 11.3205 13.75 7.76037 13.75C4.20029 13.75 1.31445 10.9519 1.31445 7.5C1.31445 4.04813 4.20029 1.25 7.76037 1.25ZM7.76037 2.5C6.39272 2.5 5.08108 3.02678 4.11401 3.96447C3.14693 4.90215 2.60364 6.17392 2.60364 7.5C2.60364 8.82608 3.14693 10.0979 4.11401 11.0355C5.08108 11.9732 6.39272 12.5 7.76037 12.5C9.12802 12.5 10.4397 11.9732 11.4067 11.0355C12.3738 10.0979 12.9171 8.82608 12.9171 7.5C12.9171 6.17392 12.3738 4.90215 11.4067 3.96447C10.4397 3.02678 9.12802 2.5 7.76037 2.5ZM7.76037 3.75C7.91825 3.75002 8.07064 3.80622 8.18862 3.90795C8.3066 4.00967 8.38198 4.14984 8.40045 4.30187L8.40496 4.375V7.24125L10.1499 8.93313C10.2655 9.0456 10.3326 9.19652 10.3376 9.35524C10.3426 9.51396 10.2851 9.66857 10.1768 9.78767C10.0685 9.90678 9.91746 9.98144 9.75443 9.9965C9.5914 10.0116 9.42857 9.96588 9.29901 9.86875L9.23842 9.81687L7.30464 7.94187C7.20446 7.84465 7.14012 7.71813 7.12158 7.58187L7.11578 7.5V4.375C7.11578 4.20924 7.18369 4.05027 7.30458 3.93306C7.42546 3.81585 7.58941 3.75 7.76037 3.75Z" fill="#0FC3ED"/>
</svg>
