<svg width="15" height="12" viewBox="0 0 15 12" fill="none" xmlns="http://www.w3.org/2000/svg">
<path d="M6.91176 1.26316V1.32272L6.67647 1.16272V0.5H14.3235V11.5H11V11.2368H13.5882H14.0882V10.7368V1.26316V0.763158H13.5882H7.41176H6.91176V1.26316ZM4.90506 3.0546L4.63235 2.87715L4.35965 3.0546L0.962589 5.26513L0.735294 5.41303V5.68421V10.7368V11.2368H1.23529H3.08824H3.58824V10.7368V7.44737H5.67647V10.7368V11.2368H6.17647H8.02941H8.52941V10.7368V5.68421V5.41303L8.30212 5.26513L4.90506 3.0546ZM0.5 11.5V5.31691L4.63235 2.49986L8.76471 5.31691V11.5H0.5ZM11.8529 3.28947H11.6176V3.02632H11.8529V3.28947ZM11.8529 5.81579H11.6176V5.55263H11.8529V5.81579ZM11.8529 8.3421H11.6176V8.07895H11.8529V8.3421Z" fill="#0231A8" stroke="black"/>
</svg>
