<svg width="15" height="14" viewBox="0 0 15 14" fill="none" xmlns="http://www.w3.org/2000/svg">
<ellipse cx="7.125" cy="7" rx="7.125" ry="7" fill="#57CA22"/>
<path d="M11.22 4.36127C11.1682 4.30992 11.1065 4.26917 11.0385 4.24135C10.9706 4.21354 10.8977 4.19922 10.8241 4.19922C10.7505 4.19922 10.6776 4.21354 10.6096 4.24135C10.5417 4.26917 10.48 4.30992 10.4282 4.36127L6.27372 8.44831L4.52829 6.72803C4.47447 6.67695 4.41093 6.63678 4.34131 6.60982C4.27168 6.58287 4.19733 6.56965 4.12251 6.57092C4.04768 6.57219 3.97385 6.58793 3.90521 6.61724C3.83658 6.64654 3.77449 6.68884 3.7225 6.74173C3.67051 6.79461 3.62962 6.85703 3.60219 6.92543C3.57475 6.99384 3.56129 7.06688 3.56259 7.14039C3.56388 7.2139 3.5799 7.28644 3.60973 7.35387C3.63956 7.4213 3.68262 7.4823 3.73644 7.53338L5.87779 9.63716C5.92963 9.68851 5.99131 9.72927 6.05926 9.75708C6.12721 9.7849 6.2001 9.79922 6.27372 9.79922C6.34733 9.79922 6.42022 9.7849 6.48817 9.75708C6.55613 9.72927 6.6178 9.68851 6.66964 9.63716L11.22 5.16663C11.2766 5.11533 11.3218 5.05306 11.3527 4.98376C11.3836 4.91445 11.3995 4.83961 11.3995 4.76395C11.3995 4.68829 11.3836 4.61345 11.3527 4.54415C11.3218 4.47484 11.2766 4.41258 11.22 4.36127Z" fill="white"/>
</svg>
