<svg width="211" height="46" viewBox="0 0 211 46" fill="none" xmlns="http://www.w3.org/2000/svg">
<path d="M67.3836 3.66355V20.7236H63.3824V3.66355H67.3836Z" fill="white"/>
<path d="M84.8268 20.7236H80.8256L74.1336 10.2555V20.7236H70.1323V3.66355H74.1336L80.8256 14.2274V3.66355H84.8268V20.7236Z" fill="white"/>
<path d="M102.27 20.7236H98.2687L91.5768 10.2555V20.7236H87.5755V3.66355H91.5768L98.2687 14.2274V3.66355H102.27V20.7236Z" fill="white"/>
<path d="M117.127 4.52484C118.403 5.27855 119.4 6.30742 120.131 7.63537C120.861 8.96333 121.233 10.4588 121.233 12.1337C121.233 13.8086 120.861 15.304 120.119 16.644C119.377 17.9839 118.368 19.0247 117.104 19.7665C115.84 20.5082 114.425 20.891 112.882 20.891C111.34 20.891 109.936 20.5202 108.66 19.7665C107.385 19.0127 106.387 17.9719 105.645 16.644C104.903 15.304 104.532 13.8086 104.532 12.1337C104.532 10.4588 104.903 8.96333 105.645 7.63537C106.387 6.30742 107.396 5.26658 108.66 4.52484C109.936 3.77114 111.34 3.40026 112.882 3.40026C114.425 3.40026 115.851 3.77114 117.127 4.52484ZM109.762 8.55657C108.985 9.42991 108.602 10.6263 108.602 12.1337C108.602 13.6411 108.985 14.8135 109.762 15.6988C110.539 16.5841 111.571 17.0268 112.882 17.0268C114.193 17.0268 115.213 16.5841 115.99 15.6988C116.767 14.8135 117.162 13.6291 117.162 12.1337C117.162 10.6382 116.779 9.45384 116.002 8.56853C115.225 7.68323 114.193 7.24058 112.882 7.24058C111.571 7.24058 110.528 7.68323 109.762 8.55657Z" fill="white"/>
<path d="M126.568 3.66355L130.615 16.5005L134.663 3.66355H138.942L133.19 20.7117H128.017L122.288 3.66355H126.568Z" fill="white"/>
<path d="M150.726 17.6129H144.533L143.5 20.7234H139.29L145.344 3.78299H149.949L156.003 20.7115H151.747L150.714 17.6009L150.726 17.6129ZM149.694 14.4784L147.641 8.20952L145.565 14.4784H149.705H149.694Z" fill="white"/>
<path d="M169.433 3.66355V6.94157H164.945V20.7236H160.92V6.94157H156.478V3.66355H169.433Z" fill="white"/>
<path d="M175.116 3.66355V20.7236H171.115V3.66355H175.116Z" fill="white"/>
<path d="M189.973 4.52484C191.249 5.27855 192.246 6.30742 192.977 7.63537C193.708 8.96333 194.079 10.4588 194.079 12.1337C194.079 13.8086 193.708 15.304 192.965 16.644C192.223 17.9839 191.214 19.0247 189.95 19.7665C188.686 20.5082 187.271 20.891 185.728 20.891C184.186 20.891 182.782 20.5202 181.507 19.7665C180.231 19.0127 179.233 17.9719 178.491 16.644C177.749 15.304 177.378 13.8086 177.378 12.1337C177.378 10.4588 177.749 8.96333 178.491 7.63537C179.233 6.30742 180.242 5.26658 181.507 4.52484C182.782 3.77114 184.186 3.40026 185.728 3.40026C187.271 3.40026 188.697 3.77114 189.973 4.52484ZM182.608 8.55657C181.831 9.42991 181.449 10.6263 181.449 12.1337C181.449 13.6411 181.831 14.8135 182.608 15.6988C183.385 16.5841 184.418 17.0268 185.728 17.0268C187.039 17.0268 188.059 16.5841 188.837 15.6988C189.614 14.8135 190.008 13.6291 190.008 12.1337C190.008 10.6382 189.625 9.45384 188.848 8.56853C188.071 7.68323 187.039 7.24058 185.728 7.24058C184.418 7.24058 183.374 7.68323 182.608 8.55657Z" fill="white"/>
<path d="M211 20.7236H206.999L200.307 10.2555V20.7236H196.305V3.66355H200.307L206.999 14.2274V3.66355H211V20.7236Z" fill="white"/>
<path d="M71.7908 33.3996C72.6143 34.0457 73.1825 34.919 73.4957 36.0316H72.0807C71.814 35.3258 71.3849 34.7635 70.805 34.3448C70.2135 33.926 69.4944 33.7107 68.6362 33.7107C67.9635 33.7107 67.3488 33.8782 66.8153 34.2251C66.2818 34.5601 65.8643 35.0506 65.5512 35.6847C65.238 36.3187 65.0872 37.0605 65.0872 37.9099C65.0872 38.7593 65.238 39.4891 65.5512 40.1112C65.8643 40.7333 66.2818 41.2238 66.8153 41.5588C67.3488 41.8938 67.9519 42.0732 68.6362 42.0732C69.4944 42.0732 70.2135 41.8579 70.805 41.4392C71.3965 41.0204 71.8256 40.4582 72.0807 39.7523H73.4957C73.1825 40.8649 72.6143 41.7383 71.7908 42.3843C70.9674 43.0303 69.9236 43.3533 68.6594 43.3533C67.6852 43.3533 66.8269 43.126 66.0847 42.6595C65.3424 42.2048 64.7625 41.5588 64.345 40.7333C63.9275 39.9078 63.7187 38.9747 63.7187 37.9219C63.7187 36.8691 63.9275 35.912 64.345 35.0865C64.7625 34.261 65.3424 33.615 66.0847 33.1484C66.8269 32.6938 67.6852 32.4545 68.6594 32.4545C69.9236 32.4545 70.9674 32.7775 71.7908 33.4236V33.3996Z" fill="white"/>
<path d="M88.5845 40.7692L87.7147 43.2457H86.2766L90.1154 32.7416H91.6348L95.4621 43.2457H94.0239L93.1541 40.7692H88.5845ZM92.7598 39.6925L90.8577 34.2849L88.9557 39.6925H92.7598Z" fill="white"/>
<path d="M118.971 32.7177V43.2337H117.637V34.8353L114.39 43.2337H113.195L109.925 34.8711V43.2337H108.591V32.7177H110.191L113.81 41.5468L117.37 32.7177H118.971Z" fill="white"/>
<path d="M134.234 43.2336H132.9V32.5262H136.194C137.377 32.5262 138.27 32.8133 138.861 33.3876C139.453 33.9618 139.743 34.7395 139.743 35.7324C139.743 36.7254 139.441 37.515 138.826 38.0773C138.223 38.6396 137.342 38.9147 136.194 38.9147H134.234V43.2336ZM137.829 37.2398C138.189 36.8809 138.363 36.3904 138.363 35.7324C138.363 35.0744 138.189 34.56 137.829 34.2011C137.47 33.8422 136.89 33.6747 136.066 33.6747H134.222V37.7543H136.066C136.878 37.7543 137.47 37.5748 137.829 37.2279V37.2398Z" fill="white"/>
<path d="M154.333 32.5382V38.9626C154.333 40.0154 154.553 40.793 155.005 41.2955C155.458 41.798 156.084 42.0492 156.873 42.0492C157.661 42.0492 158.276 41.798 158.717 41.2955C159.158 40.793 159.378 40.0154 159.378 38.9746V32.5501H160.712V38.9746C160.712 40.4341 160.364 41.5228 159.656 42.2646C158.96 42.9943 158.021 43.3652 156.838 43.3652C155.655 43.3652 154.739 42.9943 154.031 42.2646C153.335 41.5348 152.976 40.4341 152.976 38.9746V32.5501H154.31L154.333 32.5382Z" fill="white"/>
<path d="M180.776 41.8819C180.544 42.3126 180.184 42.6715 179.697 42.9467C179.222 43.2218 178.619 43.3534 177.911 43.3534C177.204 43.3534 176.612 43.2218 176.079 42.9706C175.545 42.7074 175.116 42.3605 174.803 41.9058C174.478 41.4512 174.304 40.9368 174.246 40.3625H175.673C175.708 40.6616 175.8 40.9607 175.974 41.2478C176.148 41.535 176.392 41.7742 176.705 41.9657C177.018 42.1571 177.413 42.2408 177.865 42.2408C178.456 42.2408 178.909 42.0733 179.222 41.7503C179.535 41.4273 179.697 41.0086 179.697 40.5061C179.697 40.0754 179.581 39.7165 179.361 39.4413C179.141 39.1662 178.874 38.9508 178.549 38.7953C178.224 38.6398 177.784 38.4723 177.227 38.2928C176.566 38.0655 176.044 37.8621 175.65 37.6588C175.255 37.4673 174.919 37.1683 174.629 36.7735C174.351 36.3787 174.212 35.8523 174.212 35.2062C174.212 34.6439 174.339 34.1534 174.606 33.7347C174.861 33.304 175.244 32.981 175.719 32.7537C176.206 32.5264 176.775 32.4067 177.436 32.4067C178.456 32.4067 179.268 32.658 179.86 33.1724C180.463 33.6868 180.811 34.3329 180.904 35.1225H179.465C179.384 34.6918 179.175 34.3209 178.828 33.9979C178.48 33.6749 178.016 33.5074 177.424 33.5074C176.879 33.5074 176.45 33.651 176.125 33.9381C175.8 34.2252 175.638 34.632 175.638 35.1584C175.638 35.5771 175.743 35.9121 175.951 36.1633C176.16 36.4265 176.427 36.6299 176.74 36.7735C177.053 36.917 177.482 37.0845 178.039 37.264C178.712 37.4913 179.245 37.6947 179.651 37.898C180.057 38.1014 180.405 38.4125 180.683 38.8192C180.973 39.226 181.112 39.7763 181.112 40.4463C181.112 40.9487 180.996 41.4273 180.764 41.858L180.776 41.8819Z" fill="white"/>
<path d="M8.01413 12.5737H0V45.6411H8.01413V12.5737Z" fill="white"/>
<path d="M12.4909 37.7332V46H44.5474V37.7332H12.4909Z" fill="white"/>
<path d="M36.5217 0H44.5358V33.0674H36.5217V0Z" fill="white"/>
<path d="M0 9.31614e-06V8.26685H32.0565V9.31614e-06H0Z" fill="white"/>
</svg>
