<svg width="412" height="65" viewBox="0 0 412 65" fill="none" xmlns="http://www.w3.org/2000/svg">
<path d="M21.5224 0.179859C18.2059 0.789602 15.4679 2.66964 13.9719 5.34997C13.1393 6.83622 12.8711 8.0176 12.9417 9.77061L12.984 11.1552L12.3489 11.2315C9.1735 11.5998 6.57669 12.6415 4.47384 14.4072C3.06254 15.5886 2.1593 16.681 1.34074 18.2181C0.239922 20.2506 0 21.2414 0 23.8074C0 25.6747 0.0423392 26.0939 0.324601 26.9705C0.677427 28.0629 1.43953 29.6254 1.90526 30.2224L2.20164 30.6035H7.07065C12.2078 30.6035 12.2219 30.6035 12.9558 31.226C13.9296 32.0262 14.0707 33.1187 13.351 34.3509C12.7723 35.3417 12.6877 35.8625 12.9699 36.7263C13.3792 37.9839 14.5365 38.7715 16.0183 38.7715C17.7825 38.7715 19.1232 37.5393 19.1232 35.9134C19.1232 35.3925 19.0103 35.0241 18.6151 34.3128C18.1776 33.5252 18.1071 33.2838 18.1635 32.763C18.2482 31.9627 18.8127 31.2005 19.5466 30.8576C20.0688 30.6162 20.3652 30.6035 24.9801 30.6035H29.8491V27.631V24.6585L29.2564 24.7855C28.9177 24.8491 28.1697 24.8745 27.5911 24.8364C21.2543 24.4172 18.3752 17.5321 22.8491 13.5053C24.4015 12.108 26.2785 11.4728 28.5507 11.5744L29.8491 11.638L29.8209 6.7346L29.7786 1.83125L28.9318 1.38664C26.6314 0.14175 24.0204 -0.277449 21.5224 0.179859Z" fill="#0231A8"/>
<path d="M38.4587 0.167162C37.0192 0.446628 35.4667 1.03096 34.4788 1.66611L34.0837 1.90747V8.09382C34.0837 13.8356 34.0554 14.3183 33.8155 14.7883C33.505 15.398 33.0534 15.7918 32.3619 16.0586C31.5574 16.3508 30.9647 16.2872 29.8356 15.8045C28.4949 15.2329 27.6622 15.2075 26.5896 15.7156C24.642 16.6302 24.3315 18.993 25.9828 20.2887C27.1118 21.2033 28.3396 21.2922 29.8497 20.5809C31.3598 19.8695 32.8982 20.1617 33.6885 21.2922C34.0131 21.7749 34.0131 21.813 34.0554 26.1829L34.0978 30.6035H37.372H40.6604L40.6039 29.2824C40.5475 27.8851 40.7309 27.0086 41.3096 25.9669C42.1563 24.4426 43.737 23.1977 45.5576 22.6387C46.3479 22.3847 46.856 22.3085 47.8439 22.3085C50.0455 22.3085 51.6827 22.9182 53.221 24.3282C54.7593 25.7129 55.5638 27.7962 55.2956 29.6127C55.225 30.0827 55.1968 30.5146 55.2392 30.54C55.2674 30.5781 56.7351 30.6035 58.4993 30.6035C62.084 30.6035 61.7876 30.6797 62.4792 29.5873C63.0155 28.7489 63.6647 26.9959 63.8622 25.878C64.1445 24.3536 63.9751 21.9147 63.5235 20.5046C62.832 18.4086 61.7594 16.7064 60.1928 15.1948C57.9771 13.0607 55.0416 11.7523 51.5698 11.3585L50.9206 11.2823L50.9911 10.0374C51.1323 7.26813 50.102 4.79105 47.9709 2.84749C47.1383 2.09802 45.7128 1.1961 44.739 0.815014C42.862 0.090944 40.2511 -0.175819 38.4587 0.167162Z" fill="#0FC3ED"/>
<path d="M47.2787 26.1448C45.1194 26.6275 44.1739 28.6346 45.2606 30.4257C45.8674 31.4546 45.9098 32.4836 45.3311 33.2457C45.1194 33.5379 44.696 33.8936 44.3855 34.0333C43.8634 34.2747 43.567 34.2874 38.952 34.2874H34.083V37.2599V40.2324L34.6899 40.1053C35.0145 40.0418 35.7625 40.0164 36.3552 40.0545C40.2363 40.3086 43.2706 43.2176 43.2565 46.7109C43.2424 49.1499 41.6194 51.5253 39.1919 52.6178C37.8794 53.2021 36.8492 53.3927 35.325 53.3037L34.083 53.2529V58.1817V63.1231L34.831 63.5423C38.0629 65.3716 41.9158 65.4859 45.444 63.8472C46.9541 63.1486 49.0287 61.3066 49.7767 60.0109C50.7364 58.3341 50.9481 57.5592 50.9481 55.603V53.85L51.5832 53.7865C55.1397 53.3673 58.0188 52.0716 60.2345 49.912C61.787 48.4004 62.8031 46.7744 63.537 44.6403C63.8898 43.5733 63.918 43.3446 63.918 41.2105C63.918 39.0764 63.8898 38.8477 63.537 37.7934C63.3253 37.171 62.8454 36.142 62.4785 35.5069L61.8152 34.3509L56.8051 34.2874C53.3756 34.2493 51.7102 34.1731 51.5126 34.0714C51.1457 33.8809 50.5388 33.2838 50.313 32.8901C49.9884 32.3311 50.0872 31.3657 50.5671 30.54C50.807 30.1208 51.0469 29.5492 51.0893 29.2697C51.2022 28.6346 50.9058 27.7326 50.3836 27.1356C49.7626 26.3861 48.2949 25.9161 47.2787 26.1448Z" fill="#0231A8"/>
<path d="M1.90526 34.6685C1.43953 35.2655 0.677427 36.8153 0.324601 37.9204C0.0423392 38.7969 0 39.2161 0 41.0835C0 43.6495 0.239922 44.6403 1.34074 46.6728C3.47181 50.6234 7.39525 53.1132 12.3489 53.6594L12.984 53.7229L12.9417 55.1711C12.8852 56.7589 13.1534 58.0928 13.8167 59.3885C15.1433 62.0053 17.726 63.9615 20.8732 64.7364C22.0587 65.0286 24.7967 65.0286 26.0386 64.7364C27.0265 64.4951 28.7765 63.7964 29.4399 63.3645L29.8491 63.1104V56.9241C29.8491 53.2656 29.9056 50.5599 29.9903 50.3058C30.2584 49.442 31.4721 48.6417 32.5165 48.6417C32.8552 48.6417 33.4621 48.8069 34.0972 49.0863C35.4379 49.658 36.2706 49.6834 37.3432 49.1753C39.1073 48.3496 39.573 46.2028 38.2746 44.8817C37.2162 43.7892 35.6496 43.5733 34.1254 44.2846C32.5871 45.0087 31.1193 44.7673 30.3149 43.6622L29.9197 43.1286L29.8774 38.708L29.835 34.2874H26.5467H23.2583L23.3289 35.456C23.4136 36.9042 23.216 37.8188 22.5668 38.9748C21.6636 40.6008 19.7018 41.9981 17.7119 42.43C16.5546 42.684 14.9881 42.6332 13.8308 42.3157C10.2884 41.3502 8.14324 38.2126 8.67954 34.7955L8.7501 34.3509L5.47587 34.3128L2.21575 34.2874L1.90526 34.6685Z" fill="#0231A8"/>
<path d="M99.3906 38.625L105.547 43.5L102.594 46.0625L96.5312 41.1875L99.3906 38.625ZM105.703 30.0938V31.1719C105.703 32.901 105.469 34.4531 105 35.8281C104.542 37.2031 103.88 38.375 103.016 39.3438C102.151 40.3021 101.13 41.0365 99.9531 41.5469C98.776 42.0573 97.4688 42.3125 96.0312 42.3125C94.6042 42.3125 93.2969 42.0573 92.1094 41.5469C90.9219 41.0365 89.8958 40.3021 89.0312 39.3438C88.1667 38.375 87.4948 37.2031 87.0156 35.8281C86.5469 34.4531 86.3125 32.901 86.3125 31.1719V30.0938C86.3125 28.3542 86.5469 26.8021 87.0156 25.4375C87.4948 24.0625 88.1615 22.8906 89.0156 21.9219C89.8698 20.9531 90.8906 20.2135 92.0781 19.7031C93.2656 19.1927 94.5729 18.9375 96 18.9375C97.4375 18.9375 98.7448 19.1927 99.9219 19.7031C101.109 20.2135 102.135 20.9531 103 21.9219C103.865 22.8906 104.531 24.0625 105 25.4375C105.469 26.8021 105.703 28.3542 105.703 30.0938ZM100.969 31.1719V30.0625C100.969 28.8542 100.854 27.7917 100.625 26.875C100.406 25.9583 100.083 25.1875 99.6562 24.5625C99.2396 23.9375 98.724 23.4688 98.1094 23.1562C97.4948 22.8333 96.7917 22.6719 96 22.6719C95.2083 22.6719 94.5052 22.8333 93.8906 23.1562C93.276 23.4688 92.7604 23.9375 92.3438 24.5625C91.9271 25.1875 91.6094 25.9583 91.3906 26.875C91.1719 27.7917 91.0625 28.8542 91.0625 30.0625V31.1719C91.0625 32.3698 91.1719 33.4323 91.3906 34.3594C91.6094 35.276 91.9271 36.0521 92.3438 36.6875C92.7708 37.3125 93.2917 37.7865 93.9062 38.1094C94.5312 38.4323 95.2396 38.5938 96.0312 38.5938C96.8229 38.5938 97.5208 38.4323 98.125 38.1094C98.7396 37.7865 99.2552 37.3125 99.6719 36.6875C100.099 36.0521 100.422 35.276 100.641 34.3594C100.859 33.4323 100.969 32.3698 100.969 31.1719ZM118.812 37.9531V25.0938H123.312V42H119.078L118.812 37.9531ZM119.312 34.4844L120.641 34.4531C120.641 35.5781 120.51 36.625 120.25 37.5938C119.99 38.5521 119.599 39.3854 119.078 40.0938C118.557 40.7917 117.901 41.3385 117.109 41.7344C116.318 42.1198 115.385 42.3125 114.312 42.3125C113.49 42.3125 112.729 42.1979 112.031 41.9688C111.344 41.7292 110.75 41.3594 110.25 40.8594C109.76 40.349 109.375 39.6979 109.094 38.9062C108.823 38.1042 108.688 37.1406 108.688 36.0156V25.0938H113.188V36.0469C113.188 36.5469 113.245 36.9688 113.359 37.3125C113.484 37.6562 113.656 37.9375 113.875 38.1562C114.094 38.375 114.349 38.5312 114.641 38.625C114.943 38.7188 115.276 38.7656 115.641 38.7656C116.568 38.7656 117.297 38.5781 117.828 38.2031C118.37 37.8281 118.75 37.3177 118.969 36.6719C119.198 36.0156 119.312 35.2865 119.312 34.4844ZM131.5 25.0938V42H126.984V25.0938H131.5ZM126.703 20.6875C126.703 20.0312 126.932 19.4896 127.391 19.0625C127.849 18.6354 128.464 18.4219 129.234 18.4219C129.995 18.4219 130.604 18.6354 131.062 19.0625C131.531 19.4896 131.766 20.0312 131.766 20.6875C131.766 21.3438 131.531 21.8854 131.062 22.3125C130.604 22.7396 129.995 22.9531 129.234 22.9531C128.464 22.9531 127.849 22.7396 127.391 22.3125C126.932 21.8854 126.703 21.3438 126.703 20.6875ZM148.672 38.4844V42H135.828V38.4844H148.672ZM148.422 27.6875L137.641 42H134.625V39.3281L145.359 25.0938H148.422V27.6875ZM146.828 25.0938V28.625H134.875V25.0938H146.828ZM164.344 19.25H169.016V34.2812C169.016 36.0312 168.641 37.5052 167.891 38.7031C167.151 39.901 166.125 40.8021 164.812 41.4062C163.51 42.0104 162.01 42.3125 160.312 42.3125C158.615 42.3125 157.104 42.0104 155.781 41.4062C154.469 40.8021 153.438 39.901 152.688 38.7031C151.948 37.5052 151.578 36.0312 151.578 34.2812V19.25H156.266V34.2812C156.266 35.3021 156.427 36.1354 156.75 36.7812C157.073 37.4271 157.536 37.901 158.141 38.2031C158.755 38.5052 159.479 38.6562 160.312 38.6562C161.167 38.6562 161.891 38.5052 162.484 38.2031C163.089 37.901 163.547 37.4271 163.859 36.7812C164.182 36.1354 164.344 35.3021 164.344 34.2812V19.25ZM177.094 28.3438V48.5H172.594V25.0938H176.766L177.094 28.3438ZM187.797 33.3594V33.6875C187.797 34.9167 187.651 36.0573 187.359 37.1094C187.078 38.1615 186.661 39.0781 186.109 39.8594C185.557 40.6302 184.87 41.2344 184.047 41.6719C183.234 42.099 182.297 42.3125 181.234 42.3125C180.203 42.3125 179.307 42.1042 178.547 41.6875C177.786 41.2708 177.146 40.6875 176.625 39.9375C176.115 39.1771 175.703 38.2969 175.391 37.2969C175.078 36.2969 174.839 35.224 174.672 34.0781V33.2188C174.839 31.9896 175.078 30.8646 175.391 29.8438C175.703 28.8125 176.115 27.9219 176.625 27.1719C177.146 26.4115 177.781 25.8229 178.531 25.4062C179.292 24.9896 180.182 24.7812 181.203 24.7812C182.276 24.7812 183.219 24.9844 184.031 25.3906C184.854 25.7969 185.542 26.3802 186.094 27.1406C186.656 27.901 187.078 28.8073 187.359 29.8594C187.651 30.9115 187.797 32.0781 187.797 33.3594ZM183.281 33.6875V33.3594C183.281 32.6406 183.219 31.9792 183.094 31.375C182.979 30.7604 182.792 30.224 182.531 29.7656C182.281 29.3073 181.948 28.9531 181.531 28.7031C181.125 28.4427 180.63 28.3125 180.047 28.3125C179.432 28.3125 178.906 28.4115 178.469 28.6094C178.042 28.8073 177.693 29.0938 177.422 29.4688C177.151 29.8438 176.948 30.2917 176.812 30.8125C176.677 31.3333 176.594 31.9219 176.562 32.5781V34.75C176.615 35.5208 176.76 36.2135 177 36.8281C177.24 37.4323 177.609 37.9115 178.109 38.2656C178.609 38.6198 179.266 38.7969 180.078 38.7969C180.672 38.7969 181.172 38.6667 181.578 38.4062C181.984 38.1354 182.312 37.7656 182.562 37.2969C182.823 36.8281 183.005 36.2865 183.109 35.6719C183.224 35.0573 183.281 34.3958 183.281 33.6875ZM200.984 19.25H204.953L210.797 35.9531L216.641 19.25H220.609L212.391 42H209.203L200.984 19.25ZM198.844 19.25H202.797L203.516 35.5312V42H198.844V19.25ZM218.797 19.25H222.766V42H218.078V35.5312L218.797 19.25ZM235.719 38.1875V30.6562C235.719 30.1146 235.63 29.651 235.453 29.2656C235.276 28.8698 235 28.5625 234.625 28.3438C234.26 28.125 233.786 28.0156 233.203 28.0156C232.703 28.0156 232.271 28.1042 231.906 28.2812C231.542 28.4479 231.26 28.6927 231.062 29.0156C230.865 29.3281 230.766 29.6979 230.766 30.125H226.266C226.266 29.4062 226.432 28.724 226.766 28.0781C227.099 27.4323 227.583 26.8646 228.219 26.375C228.854 25.875 229.609 25.4844 230.484 25.2031C231.37 24.9219 232.359 24.7812 233.453 24.7812C234.766 24.7812 235.932 25 236.953 25.4375C237.974 25.875 238.776 26.5312 239.359 27.4062C239.953 28.2812 240.25 29.375 240.25 30.6875V37.9219C240.25 38.849 240.307 39.6094 240.422 40.2031C240.536 40.7865 240.703 41.2969 240.922 41.7344V42H236.375C236.156 41.5417 235.99 40.9688 235.875 40.2812C235.771 39.5833 235.719 38.8854 235.719 38.1875ZM236.312 31.7031L236.344 34.25H233.828C233.234 34.25 232.719 34.3177 232.281 34.4531C231.844 34.5885 231.484 34.7812 231.203 35.0312C230.922 35.2708 230.714 35.5521 230.578 35.875C230.453 36.1979 230.391 36.5521 230.391 36.9375C230.391 37.3229 230.479 37.6719 230.656 37.9844C230.833 38.2865 231.089 38.526 231.422 38.7031C231.755 38.8698 232.146 38.9531 232.594 38.9531C233.271 38.9531 233.859 38.8177 234.359 38.5469C234.859 38.276 235.245 37.9427 235.516 37.5469C235.797 37.151 235.943 36.776 235.953 36.4219L237.141 38.3281C236.974 38.7552 236.745 39.1979 236.453 39.6562C236.172 40.1146 235.812 40.5469 235.375 40.9531C234.938 41.349 234.411 41.6771 233.797 41.9375C233.182 42.1875 232.453 42.3125 231.609 42.3125C230.536 42.3125 229.562 42.099 228.688 41.6719C227.823 41.2344 227.135 40.6354 226.625 39.875C226.125 39.1042 225.875 38.2292 225.875 37.25C225.875 36.3646 226.042 35.5781 226.375 34.8906C226.708 34.2031 227.198 33.625 227.844 33.1562C228.5 32.6771 229.318 32.3177 230.297 32.0781C231.276 31.8281 232.411 31.7031 233.703 31.7031H236.312ZM248.125 28.7031V42H243.625V25.0938H247.844L248.125 28.7031ZM247.469 32.9531H246.25C246.25 31.7031 246.411 30.5781 246.734 29.5781C247.057 28.5677 247.51 27.7083 248.094 27C248.677 26.2812 249.37 25.7344 250.172 25.3594C250.984 24.974 251.891 24.7812 252.891 24.7812C253.682 24.7812 254.406 24.8958 255.062 25.125C255.719 25.3542 256.281 25.7188 256.75 26.2188C257.229 26.7188 257.594 27.3802 257.844 28.2031C258.104 29.026 258.234 30.0312 258.234 31.2188V42H253.703V31.2031C253.703 30.4531 253.599 29.8698 253.391 29.4531C253.182 29.0365 252.875 28.7448 252.469 28.5781C252.073 28.401 251.583 28.3125 251 28.3125C250.396 28.3125 249.87 28.4323 249.422 28.6719C248.984 28.9115 248.62 29.2448 248.328 29.6719C248.047 30.0885 247.833 30.5781 247.688 31.1406C247.542 31.7031 247.469 32.3073 247.469 32.9531ZM270.781 38.1875V30.6562C270.781 30.1146 270.693 29.651 270.516 29.2656C270.339 28.8698 270.062 28.5625 269.688 28.3438C269.323 28.125 268.849 28.0156 268.266 28.0156C267.766 28.0156 267.333 28.1042 266.969 28.2812C266.604 28.4479 266.323 28.6927 266.125 29.0156C265.927 29.3281 265.828 29.6979 265.828 30.125H261.328C261.328 29.4062 261.495 28.724 261.828 28.0781C262.161 27.4323 262.646 26.8646 263.281 26.375C263.917 25.875 264.672 25.4844 265.547 25.2031C266.432 24.9219 267.422 24.7812 268.516 24.7812C269.828 24.7812 270.995 25 272.016 25.4375C273.036 25.875 273.839 26.5312 274.422 27.4062C275.016 28.2812 275.312 29.375 275.312 30.6875V37.9219C275.312 38.849 275.37 39.6094 275.484 40.2031C275.599 40.7865 275.766 41.2969 275.984 41.7344V42H271.438C271.219 41.5417 271.052 40.9688 270.938 40.2812C270.833 39.5833 270.781 38.8854 270.781 38.1875ZM271.375 31.7031L271.406 34.25H268.891C268.297 34.25 267.781 34.3177 267.344 34.4531C266.906 34.5885 266.547 34.7812 266.266 35.0312C265.984 35.2708 265.776 35.5521 265.641 35.875C265.516 36.1979 265.453 36.5521 265.453 36.9375C265.453 37.3229 265.542 37.6719 265.719 37.9844C265.896 38.2865 266.151 38.526 266.484 38.7031C266.818 38.8698 267.208 38.9531 267.656 38.9531C268.333 38.9531 268.922 38.8177 269.422 38.5469C269.922 38.276 270.307 37.9427 270.578 37.5469C270.859 37.151 271.005 36.776 271.016 36.4219L272.203 38.3281C272.036 38.7552 271.807 39.1979 271.516 39.6562C271.234 40.1146 270.875 40.5469 270.438 40.9531C270 41.349 269.474 41.6771 268.859 41.9375C268.245 42.1875 267.516 42.3125 266.672 42.3125C265.599 42.3125 264.625 42.099 263.75 41.6719C262.885 41.2344 262.198 40.6354 261.688 39.875C261.188 39.1042 260.938 38.2292 260.938 37.25C260.938 36.3646 261.104 35.5781 261.438 34.8906C261.771 34.2031 262.26 33.625 262.906 33.1562C263.562 32.6771 264.38 32.3177 265.359 32.0781C266.339 31.8281 267.474 31.7031 268.766 31.7031H271.375ZM289.484 25.0938H293.562V41.4375C293.562 42.9792 293.219 44.2865 292.531 45.3594C291.854 46.4427 290.906 47.2604 289.688 47.8125C288.469 48.375 287.052 48.6562 285.438 48.6562C284.729 48.6562 283.979 48.5625 283.188 48.375C282.406 48.1875 281.656 47.8958 280.938 47.5C280.229 47.1042 279.635 46.6042 279.156 46L281.141 43.3438C281.661 43.9479 282.266 44.4167 282.953 44.75C283.641 45.0938 284.401 45.2656 285.234 45.2656C286.047 45.2656 286.734 45.1146 287.297 44.8125C287.859 44.5208 288.292 44.0885 288.594 43.5156C288.896 42.9531 289.047 42.2708 289.047 41.4688V29L289.484 25.0938ZM278.109 33.75V33.4219C278.109 32.1302 278.266 30.9583 278.578 29.9062C278.901 28.8438 279.354 27.9323 279.938 27.1719C280.531 26.4115 281.25 25.8229 282.094 25.4062C282.938 24.9896 283.891 24.7812 284.953 24.7812C286.078 24.7812 287.021 24.9896 287.781 25.4062C288.542 25.8229 289.167 26.4167 289.656 27.1875C290.146 27.9479 290.526 28.849 290.797 29.8906C291.078 30.9219 291.297 32.0521 291.453 33.2812V34C291.297 35.1771 291.062 36.2708 290.75 37.2812C290.438 38.2917 290.026 39.1771 289.516 39.9375C289.005 40.6875 288.37 41.2708 287.609 41.6875C286.859 42.1042 285.964 42.3125 284.922 42.3125C283.88 42.3125 282.938 42.099 282.094 41.6719C281.26 41.2448 280.547 40.6458 279.953 39.875C279.359 39.1042 278.901 38.1979 278.578 37.1562C278.266 36.1146 278.109 34.9792 278.109 33.75ZM282.609 33.4219V33.75C282.609 34.4479 282.677 35.099 282.812 35.7031C282.948 36.3073 283.156 36.8438 283.438 37.3125C283.729 37.7708 284.089 38.1302 284.516 38.3906C284.953 38.6406 285.469 38.7656 286.062 38.7656C286.885 38.7656 287.557 38.5938 288.078 38.25C288.599 37.8958 288.99 37.4115 289.25 36.7969C289.51 36.1823 289.661 35.474 289.703 34.6719V32.625C289.682 31.9688 289.594 31.3802 289.438 30.8594C289.281 30.3281 289.062 29.875 288.781 29.5C288.5 29.125 288.135 28.8333 287.688 28.625C287.24 28.4167 286.708 28.3125 286.094 28.3125C285.5 28.3125 284.984 28.4479 284.547 28.7188C284.12 28.9792 283.76 29.3385 283.469 29.7969C283.188 30.2552 282.974 30.7969 282.828 31.4219C282.682 32.0365 282.609 32.7031 282.609 33.4219ZM304.844 42.3125C303.531 42.3125 302.354 42.1042 301.312 41.6875C300.271 41.2604 299.385 40.6719 298.656 39.9219C297.938 39.1719 297.385 38.3021 297 37.3125C296.615 36.3125 296.422 35.25 296.422 34.125V33.5C296.422 32.2188 296.604 31.0469 296.969 29.9844C297.333 28.9219 297.854 28 298.531 27.2188C299.219 26.4375 300.052 25.8385 301.031 25.4219C302.01 24.9948 303.115 24.7812 304.344 24.7812C305.542 24.7812 306.604 24.9792 307.531 25.375C308.458 25.7708 309.234 26.3333 309.859 27.0625C310.495 27.7917 310.974 28.6667 311.297 29.6875C311.62 30.6979 311.781 31.8229 311.781 33.0625V34.9375H298.344V31.9375H307.359V31.5938C307.359 30.9688 307.245 30.4115 307.016 29.9219C306.797 29.4219 306.464 29.026 306.016 28.7344C305.568 28.4427 304.995 28.2969 304.297 28.2969C303.703 28.2969 303.193 28.4271 302.766 28.6875C302.339 28.9479 301.99 29.3125 301.719 29.7812C301.458 30.25 301.26 30.8021 301.125 31.4375C301 32.0625 300.938 32.75 300.938 33.5V34.125C300.938 34.8021 301.031 35.4271 301.219 36C301.417 36.5729 301.693 37.0677 302.047 37.4844C302.411 37.901 302.849 38.224 303.359 38.4531C303.88 38.6823 304.469 38.7969 305.125 38.7969C305.938 38.7969 306.693 38.6406 307.391 38.3281C308.099 38.0052 308.708 37.5208 309.219 36.875L311.406 39.25C311.052 39.7604 310.568 40.25 309.953 40.7188C309.349 41.1875 308.62 41.5729 307.766 41.875C306.911 42.1667 305.938 42.3125 304.844 42.3125ZM318.844 28.5938V42H314.328V25.0938H318.562L318.844 28.5938ZM318.219 32.9531H316.969C316.969 31.776 317.109 30.6927 317.391 29.7031C317.682 28.7031 318.104 27.8385 318.656 27.1094C319.219 26.3698 319.911 25.7969 320.734 25.3906C321.557 24.9844 322.51 24.7812 323.594 24.7812C324.344 24.7812 325.031 24.8958 325.656 25.125C326.281 25.3438 326.818 25.6927 327.266 26.1719C327.724 26.6406 328.078 27.2552 328.328 28.0156C328.578 28.7656 328.703 29.6667 328.703 30.7188V42H324.203V31.2188C324.203 30.4479 324.099 29.8542 323.891 29.4375C323.682 29.0208 323.385 28.7292 323 28.5625C322.625 28.3958 322.172 28.3125 321.641 28.3125C321.057 28.3125 320.547 28.4323 320.109 28.6719C319.682 28.9115 319.328 29.2448 319.047 29.6719C318.766 30.0885 318.557 30.5781 318.422 31.1406C318.286 31.7031 318.219 32.3073 318.219 32.9531ZM328.281 32.4375L326.672 32.6406C326.672 31.5365 326.807 30.5104 327.078 29.5625C327.359 28.6146 327.771 27.7812 328.312 27.0625C328.865 26.3438 329.547 25.7865 330.359 25.3906C331.172 24.9844 332.109 24.7812 333.172 24.7812C333.984 24.7812 334.724 24.901 335.391 25.1406C336.057 25.3698 336.625 25.7396 337.094 26.25C337.573 26.75 337.938 27.4062 338.188 28.2188C338.448 29.0312 338.578 30.026 338.578 31.2031V42H334.062V31.2031C334.062 30.4219 333.958 29.8281 333.75 29.4219C333.552 29.0052 333.26 28.7188 332.875 28.5625C332.5 28.3958 332.052 28.3125 331.531 28.3125C330.99 28.3125 330.516 28.4219 330.109 28.6406C329.703 28.849 329.365 29.1406 329.094 29.5156C328.823 29.8906 328.62 30.3281 328.484 30.8281C328.349 31.3177 328.281 31.8542 328.281 32.4375ZM349.844 42.3125C348.531 42.3125 347.354 42.1042 346.312 41.6875C345.271 41.2604 344.385 40.6719 343.656 39.9219C342.938 39.1719 342.385 38.3021 342 37.3125C341.615 36.3125 341.422 35.25 341.422 34.125V33.5C341.422 32.2188 341.604 31.0469 341.969 29.9844C342.333 28.9219 342.854 28 343.531 27.2188C344.219 26.4375 345.052 25.8385 346.031 25.4219C347.01 24.9948 348.115 24.7812 349.344 24.7812C350.542 24.7812 351.604 24.9792 352.531 25.375C353.458 25.7708 354.234 26.3333 354.859 27.0625C355.495 27.7917 355.974 28.6667 356.297 29.6875C356.62 30.6979 356.781 31.8229 356.781 33.0625V34.9375H343.344V31.9375H352.359V31.5938C352.359 30.9688 352.245 30.4115 352.016 29.9219C351.797 29.4219 351.464 29.026 351.016 28.7344C350.568 28.4427 349.995 28.2969 349.297 28.2969C348.703 28.2969 348.193 28.4271 347.766 28.6875C347.339 28.9479 346.99 29.3125 346.719 29.7812C346.458 30.25 346.26 30.8021 346.125 31.4375C346 32.0625 345.938 32.75 345.938 33.5V34.125C345.938 34.8021 346.031 35.4271 346.219 36C346.417 36.5729 346.693 37.0677 347.047 37.4844C347.411 37.901 347.849 38.224 348.359 38.4531C348.88 38.6823 349.469 38.7969 350.125 38.7969C350.938 38.7969 351.693 38.6406 352.391 38.3281C353.099 38.0052 353.708 37.5208 354.219 36.875L356.406 39.25C356.052 39.7604 355.568 40.25 354.953 40.7188C354.349 41.1875 353.62 41.5729 352.766 41.875C351.911 42.1667 350.938 42.3125 349.844 42.3125ZM363.75 28.7031V42H359.25V25.0938H363.469L363.75 28.7031ZM363.094 32.9531H361.875C361.875 31.7031 362.036 30.5781 362.359 29.5781C362.682 28.5677 363.135 27.7083 363.719 27C364.302 26.2812 364.995 25.7344 365.797 25.3594C366.609 24.974 367.516 24.7812 368.516 24.7812C369.307 24.7812 370.031 24.8958 370.688 25.125C371.344 25.3542 371.906 25.7188 372.375 26.2188C372.854 26.7188 373.219 27.3802 373.469 28.2031C373.729 29.026 373.859 30.0312 373.859 31.2188V42H369.328V31.2031C369.328 30.4531 369.224 29.8698 369.016 29.4531C368.807 29.0365 368.5 28.7448 368.094 28.5781C367.698 28.401 367.208 28.3125 366.625 28.3125C366.021 28.3125 365.495 28.4323 365.047 28.6719C364.609 28.9115 364.245 29.2448 363.953 29.6719C363.672 30.0885 363.458 30.5781 363.312 31.1406C363.167 31.7031 363.094 32.3073 363.094 32.9531ZM385.562 25.0938V28.2812H375.719V25.0938H385.562ZM378.156 20.9219H382.656V36.9062C382.656 37.3958 382.719 37.7708 382.844 38.0312C382.979 38.2917 383.177 38.474 383.438 38.5781C383.698 38.6719 384.026 38.7188 384.422 38.7188C384.703 38.7188 384.953 38.7083 385.172 38.6875C385.401 38.6562 385.594 38.625 385.75 38.5938L385.766 41.9062C385.38 42.0312 384.964 42.1302 384.516 42.2031C384.068 42.276 383.573 42.3125 383.031 42.3125C382.042 42.3125 381.177 42.151 380.438 41.8281C379.708 41.4948 379.146 40.9635 378.75 40.2344C378.354 39.5052 378.156 38.5469 378.156 37.3594V20.9219Z" fill="#0231A8"/>
</svg>
